<svg xmlns="http://www.w3.org/2000/svg" width="102.078" height="100" viewBox="0 0 102.078 100">
  <g id="ic_add_to_card" transform="translate(0 -4.428)">
    <g id="Group_410" data-name="Group 410" transform="translate(0 4.428)">
      <g id="Group_409" data-name="Group 409" transform="translate(0 0)">
        <circle id="Ellipse_67" data-name="Ellipse 67" cx="13.522" cy="13.522" r="13.522" transform="translate(23.076 72.89)" fill="#fff"/>
        <path id="Path_293" data-name="Path 293" d="M279.6,324.243h0a13.653,13.653,0,1,0,12.251,12.251A13.654,13.654,0,0,0,279.6,324.243Z" transform="translate(-206.246 -251.484)" fill="#fff"/>
        <path id="Path_294" data-name="Path 294" d="M101.259,31.265A3.286,3.286,0,0,0,98.5,29.883H84.8v-.23c0-13.93-11.776-25.224-26.3-25.225S32.193,15.719,32.192,29.65v.234H21.982L18.5,14.68a3.575,3.575,0,0,0-3.483-2.649H0v6.91H12.132L23.3,68.121a3.448,3.448,0,0,0,3.483,2.764H89.608a3.576,3.576,0,0,0,3.483-2.649l8.889-34.091A3.128,3.128,0,0,0,101.259,31.265ZM58.5,47.966c-10.548,0-19.1-8.2-19.1-18.313S47.95,11.34,58.5,11.34s19.1,8.2,19.1,18.313C77.531,39.741,69.018,47.9,58.5,47.966Z" transform="translate(0 -4.428)" fill="#fff"/>
        <path id="Path_295" data-name="Path 295" d="M199.746,80.409l-7.221-7.352-5.645,5.514,9.978,10.109a3.938,3.938,0,0,0,2.757,1.182,3.676,3.676,0,0,0,2.757-1.05l16.542-15.623-5.383-5.776Z" transform="translate(-144.678 -51.262)" fill="#fff"/>
      </g>
    </g>
  </g>
</svg>
